<?xml version="1.0" encoding="utf-8"?>
<!-- Generator: Adobe Illustrator 24.0.2, SVG Export Plug-In . SVG Version: 6.00 Build 0)  -->
<svg version="1.1" id="Layer_1" xmlns="http://www.w3.org/2000/svg" xmlns:xlink="http://www.w3.org/1999/xlink" x="0px" y="0px"
	 viewBox="0 0 1024 1024" style="enable-background:new 0 0 1024 1024;" xml:space="preserve">
<style type="text/css">
	.st0{fill:#FFFFFF;}
</style>
<path class="st0" d="M512,0C229.3,0,0,229.3,0,512c0,255.5,187.2,467.4,432,505.8V660H302V512h130V399.2
	C432,270.8,508.5,200,625.4,200c56,0,114.6,10,114.6,10v126h-64.6c-2,0-3.9,0-5.8,0.1c-1.9,0.1-3.8,0.2-5.6,0.3s-3.6,0.3-5.3,0.6
	c-5.2,0.7-10.1,1.6-14.6,2.9c-3.8,1.1-7.3,2.3-10.5,3.7c-2.6,1.1-5.1,2.4-7.4,3.8c-1.8,1-3.4,2.1-5,3.2s-3.1,2.3-4.6,3.6
	c-0.5,0.4-1,0.8-1.4,1.3c-0.9,0.8-1.8,1.7-2.7,2.6c-0.4,0.4-0.9,0.9-1.3,1.4c-0.8,0.9-1.6,1.8-2.4,2.8c-0.8,1-1.5,1.9-2.2,2.9
	s-1.4,2-2.1,3c-0.3,0.5-0.6,1-1,1.6c-0.6,1-1.2,2.1-1.8,3.2c-0.3,0.5-0.6,1.1-0.8,1.6c-0.5,1.1-1.1,2.2-1.5,3.3
	c-0.5,1.1-0.9,2.2-1.4,3.4c-0.4,1.1-0.8,2.3-1.2,3.5c-0.2,0.6-0.4,1.2-0.6,1.8c-0.4,1.2-0.7,2.4-1,3.6c-1.2,4.8-2.1,9.7-2.6,14.7
	c-0.1,1.2-0.2,2.5-0.3,3.8c-0.2,2.5-0.2,5-0.2,7.6v96h142l-22.7,148H592v357.8c244.8-38.4,432-250.2,432-505.8
	C1024,229.3,794.7,0,512,0z"/>
</svg>
