<?xml version="1.0" encoding="utf-8"?>
<!-- Generator: Adobe Illustrator 24.0.2, SVG Export Plug-In . SVG Version: 6.00 Build 0)  -->
<svg version="1.1" id="Capa_1" xmlns="http://www.w3.org/2000/svg" xmlns:xlink="http://www.w3.org/1999/xlink" x="0px" y="0px"
	 viewBox="0 0 256 256" style="enable-background:new 0 0 256 256;" xml:space="preserve">
<style type="text/css">
	.st0{fill:#FFFFFF;}
</style>
<g>
	<path class="st0" d="M0,128c0,52.4,31.5,97.4,76.6,117.2c-0.4-8.9-0.1-19.7,2.2-29.4c2.5-10.4,16.5-69.7,16.5-69.7
		s-4.1-8.2-4.1-20.3c0-19,11-33.1,24.7-33.1c11.6,0,17.3,8.7,17.3,19.2c0,11.7-7.5,29.2-11.3,45.4c-3.2,13.6,6.8,24.7,20.2,24.7
		c24.3,0,40.6-31.1,40.6-68.1c0-28.1-18.9-49.1-53.3-49.1c-38.8,0-63,29-63,61.3c0,11.2,3.3,19,8.4,25.1c2.4,2.8,2.7,3.9,1.8,7.1
		c-0.6,2.4-2,8-2.6,10.3c-0.9,3.2-3.5,4.4-6.4,3.2C49.8,164.6,41.4,145,41.4,123c0-36.4,30.7-80,91.5-80c48.9,0,81,35.4,81,73.3
		c0,50.2-27.9,87.7-69.1,87.7c-13.8,0-26.8-7.5-31.3-16c0,0-7.4,29.5-9,35.2c-2.7,9.9-8,19.7-12.9,27.4c11.5,3.4,23.7,5.2,36.3,5.2
		c70.7,0,128-57.3,128-128C256,57.3,198.7,0,128,0C57.3,0,0,57.3,0,128z"/>
</g>
</svg>
